<svg width="30" height="30" viewBox="0 0 30 30" fill="none" xmlns="http://www.w3.org/2000/svg">
<g clip-path="url(#clip0_14037_2354)">
<path d="M28.4537 12.79L22.2662 6.60254L20.5 8.37504L25.875 13.75H8.27124V16.25H25.875L20.5 21.625L22.2675 23.3925L28.455 17.205C28.7453 16.9148 28.9755 16.5703 29.1326 16.1911C29.2897 15.8119 29.3706 15.4055 29.3706 14.995C29.3706 14.5846 29.2897 14.1782 29.1326 13.799C28.9755 13.4198 28.7453 13.0752 28.455 12.785L28.4537 12.79Z" fill="#30343A" fill-opacity="0.3"/>
<path d="M13.095 26.25C13.095 26.5815 12.9633 26.8995 12.7289 27.1339C12.4945 27.3683 12.1765 27.5 11.845 27.5H3.75C3.41848 27.5 3.10054 27.3683 2.86612 27.1339C2.6317 26.8995 2.5 26.5815 2.5 26.25V3.75C2.5 3.41848 2.6317 3.10054 2.86612 2.86612C3.10054 2.6317 3.41848 2.5 3.75 2.5H11.845C12.1765 2.5 12.4945 2.6317 12.7289 2.86612C12.9633 3.10054 13.095 3.41848 13.095 3.75V10.4163H15.595V3.75C15.595 2.75544 15.1999 1.80161 14.4967 1.09835C13.7934 0.395088 12.8396 0 11.845 0L3.75 0C2.75544 0 1.80161 0.395088 1.09835 1.09835C0.395088 1.80161 0 2.75544 0 3.75L0 26.25C0 27.2446 0.395088 28.1984 1.09835 28.9017C1.80161 29.6049 2.75544 30 3.75 30H11.845C12.8396 30 13.7934 29.6049 14.4967 28.9017C15.1999 28.1984 15.595 27.2446 15.595 26.25V19.5837H13.095V26.25Z" fill="#30343A" fill-opacity="0.3"/>
</g>
<defs>
<clipPath id="clip0_14037_2354">
<rect width="30" height="30" fill="white"/>
</clipPath>
</defs>
</svg>
