<svg width="26" height="25" viewBox="0 0 26 25" fill="none" xmlns="http://www.w3.org/2000/svg">
<path d="M12.5086 0C12.9444 0 13.3423 0.253887 13.5318 0.65913L16.7813 7.55802L24.0383 8.66146C24.4646 8.72493 24.8199 9.03252 24.9525 9.45729C25.0852 9.88207 24.9762 10.341 24.6731 10.6535L19.4103 16.0339L20.6514 23.631C20.7224 24.0704 20.5472 24.5148 20.1967 24.7784C19.8461 25.0421 19.3772 25.0714 18.9982 24.8614L12.5086 21.2875L6.02371 24.8565C5.64002 25.0665 5.1758 25.0372 4.82526 24.7735C4.47473 24.5099 4.29473 24.0656 4.36578 23.6261L5.60686 16.0291L0.344115 10.6535C0.0362137 10.341 -0.0679991 9.87718 0.0646354 9.45729C0.19727 9.0374 0.552541 8.72981 0.978866 8.66146L8.23586 7.55802L11.4854 0.65913C11.6796 0.253887 12.0728 0 12.5086 0ZM12.5086 3.85713L10.0217 9.13994C9.8559 9.48659 9.53852 9.73071 9.16431 9.7893L3.5605 10.6388L7.62954 14.7938C7.89007 15.0623 8.01323 15.4432 7.95165 15.8191L6.99005 21.6634L11.9733 18.9195C12.3096 18.7339 12.7123 18.7339 13.0439 18.9195L18.0271 21.6634L17.0703 15.824C17.0087 15.4481 17.1271 15.0672 17.3924 14.7987L21.4614 10.6437L15.8576 9.7893C15.4881 9.73071 15.166 9.49147 15.0002 9.13994L12.5086 3.85713Z" fill="#4F4F4F"/>
</svg>
